<?xml version="1.0" encoding="UTF-8"?>
<svg width="324px" height="64px" viewBox="0 0 324 64" version="1.1" xmlns="http://www.w3.org/2000/svg" xmlns:xlink="http://www.w3.org/1999/xlink">
    <!-- Generator: Sketch 51.3 (57544) - http://www.bohemiancoding.com/sketch -->
    <title>Artboard</title>
    <desc>Created with Sketch.</desc>
    <defs>
        <polygon id="path-1" points="0 0.8862 25.094191 0.8862 25.094191 30.8882 0 30.8882"></polygon>
        <polygon id="path-3" points="0.6033 0.1382 21.971 0.1382 21.971 30.1202 0.6033 30.1202"></polygon>
        <polygon id="path-5" points="0.3848 0.861 7.4138 0.861 7.4138 7.6604 0.3848 7.6604"></polygon>
    </defs>
    <g id="Artboard" stroke="none" stroke-width="1" fill="none" fill-rule="evenodd">
        <g id="Group-32" transform="translate(1.000000, 0.000000)">
            <path d="M98.0418,17.6087 L98.0418,13.7587 C98.0458,13.1717 98.4858,12.7827 99.0188,12.7837 L116.2738,12.7827 C116.8258,12.7827 117.2688,13.1837 117.2688,13.7537 L117.2688,17.0557 C117.2638,17.6097 116.7968,18.3317 115.9698,19.4797 L107.0308,32.2407 C110.3488,32.1637 113.8588,32.6607 116.8728,34.3557 C117.5528,34.7367 117.7348,35.3027 117.7888,35.8577 L117.7888,39.9657 C117.7888,40.5307 117.1688,41.1867 116.5178,40.8447 C111.2068,38.0637 104.1588,37.7597 98.2858,40.8797 C97.6858,41.1987 97.0578,40.5537 97.0578,39.9867 L97.0578,36.0817 C97.0578,35.4567 97.0698,34.3887 97.7008,33.4357 L108.0558,18.5797 L99.0398,18.5787 C98.4878,18.5787 98.0458,18.1857 98.0418,17.6087" id="Fill-1" fill="#000000"></path>
            <path d="M35.0989,41.6546 L29.8489,41.6546 C29.3499,41.6226 28.9509,41.2476 28.9099,40.7676 L28.9139,13.8246 C28.9139,13.2846 29.3669,12.8546 29.9279,12.8546 L34.8159,12.8536 C35.3279,12.8796 35.7379,13.2666 35.7699,13.7586 L35.7699,17.2756 L35.8689,17.2756 C37.1429,13.8746 39.5439,12.2866 42.7779,12.2866 C46.0599,12.2866 48.1189,13.8746 49.5889,17.2756 C50.8639,13.8746 53.7549,12.2866 56.8419,12.2866 C59.0469,12.2866 61.4479,13.1936 62.9179,15.2346 C64.5839,17.5036 64.2419,20.7906 64.2419,23.6826 L64.2369,40.6856 C64.2369,41.2226 63.7849,41.6546 63.2239,41.6546 L57.9809,41.6546 C57.4539,41.6216 57.0399,41.2046 57.0399,40.6876 L57.0379,26.4036 C57.0379,25.2716 57.1359,22.4356 56.8909,21.3586 C56.4989,19.5436 55.3229,19.0326 53.8039,19.0326 C52.5299,19.0326 51.2059,19.8836 50.6669,21.2436 C50.1279,22.6056 50.1769,24.8726 50.1769,26.4036 L50.1769,40.6856 C50.1769,41.2226 49.7239,41.6546 49.1649,41.6546 L43.9209,41.6546 C43.3939,41.6216 42.9789,41.2046 42.9789,40.6876 L42.9739,26.4036 C42.9739,23.3986 43.4629,18.9776 39.7399,18.9776 C35.9659,18.9776 36.1139,23.2846 36.1139,26.4036 L36.1119,40.6856 C36.1119,41.2226 35.6579,41.6546 35.0989,41.6546" id="Fill-3" fill="#000000"></path>
            <path d="M132.1711,17.787 C128.3001,17.787 128.0561,23.058 128.0561,26.347 C128.0561,29.635 128.0071,36.665 132.1241,36.665 C136.1921,36.665 136.3861,30.996 136.3861,27.539 C136.3861,25.271 136.2881,22.549 135.6021,20.394 C135.0141,18.523 133.8371,17.787 132.1711,17.787 M132.1241,12.287 C139.9151,12.287 144.1291,18.977 144.1291,27.481 C144.1291,35.701 139.4741,42.223 132.1241,42.223 C124.4791,42.223 120.3131,35.531 120.3131,27.198 C120.3131,18.807 124.5271,12.287 132.1241,12.287" id="Fill-5" fill="#000000"></path>
            <path d="M154.2332,41.6546 L149.0032,41.6546 C148.4772,41.6216 148.0612,41.2046 148.0612,40.6876 L148.0522,13.7346 C148.0962,13.2406 148.5322,12.8546 149.0612,12.8546 L153.9302,12.8536 C154.3882,12.8776 154.7672,13.1896 154.8632,13.6076 L154.8632,17.7296 L154.9622,17.7296 C156.4322,14.0436 158.4892,12.2866 162.1152,12.2866 C164.4672,12.2866 166.7712,13.1356 168.2412,15.4616 C169.6132,17.6156 169.6132,21.2436 169.6132,23.8526 L169.6132,40.8066 C169.5552,41.2836 169.1262,41.6546 168.6082,41.6546 L163.3452,41.6546 C162.8592,41.6236 162.4672,41.2666 162.4102,40.8066 L162.4102,26.1776 C162.4102,23.2296 162.7542,18.9196 159.1282,18.9196 C157.8532,18.9196 156.6772,19.7706 156.0892,21.0736 C155.3542,22.7186 155.2552,24.3626 155.2552,26.1776 L155.2552,40.6856 C155.2462,41.2226 154.7932,41.6546 154.2332,41.6546" id="Fill-7" fill="#000000"></path>
            <path d="M89.5784,41.5877 C89.2314,41.8997 88.7304,41.9207 88.3384,41.7097 C86.5954,40.2607 86.2834,39.5907 85.3294,38.2117 C82.4484,41.1467 80.4074,42.0277 76.6744,42.0277 C72.2554,42.0277 68.8174,39.2997 68.8174,33.8457 C68.8174,29.5847 71.1254,26.6867 74.4154,25.2657 C77.2634,24.0157 81.2414,23.7887 84.2874,23.4467 L84.2874,22.7647 C84.2874,21.5147 84.3854,20.0387 83.6484,18.9587 C83.0094,17.9917 81.7824,17.5937 80.7014,17.5937 C78.6994,17.5937 76.9194,18.6197 76.4824,20.7467 C76.3904,21.2197 76.0454,21.6877 75.5704,21.7127 L70.4824,21.1607 C70.0524,21.0637 69.5754,20.7197 69.6984,20.0627 C70.8694,13.8907 76.4434,12.0257 81.4374,12.0257 C83.9924,12.0257 87.3304,12.7067 89.3444,14.6397 C91.8994,17.0257 91.6524,20.2087 91.6524,23.6757 L91.6524,31.8527 C91.6524,34.3137 92.6754,35.3927 93.6344,36.7167 C93.9694,37.1957 94.0444,37.7627 93.6174,38.1127 C92.5454,39.0117 90.6404,40.6667 89.5914,41.5997 L89.5784,41.5877 Z M84.2874,28.7887 C84.2874,30.8347 84.3354,32.5377 83.3044,34.3577 C82.4694,35.8337 81.1424,36.7437 79.6704,36.7437 C77.6574,36.7437 76.4784,35.2087 76.4784,32.9357 C76.4784,28.4647 80.4894,27.6517 84.2874,27.6517 L84.2874,28.7887 Z" id="Fill-9" fill="#000000"></path>
            <g id="Group-13" transform="translate(0.000000, 11.139500)">
                <mask id="mask-2" fill="white">
                    <use xlink:href="#path-1"></use>
                </mask>
                <g id="Clip-12"></g>
                <path d="M20.7615,30.4482 C20.4145,30.7602 19.9125,30.7812 19.5215,30.5702 C17.7765,29.1212 17.4645,28.4512 16.5125,27.0722 C13.6305,30.0072 11.5895,30.8882 7.8575,30.8882 C3.4375,30.8882 -0.0005,28.1602 -0.0005,22.7062 C-0.0005,18.4452 2.3075,15.5472 5.5985,14.1262 C8.4465,12.8762 12.4245,12.6492 15.4685,12.3072 L15.4685,11.6252 C15.4685,10.3752 15.5675,8.8992 14.8305,7.8192 C14.1915,6.8522 12.9635,6.4542 11.8845,6.4542 C9.8825,6.4542 8.1005,7.4802 7.6645,9.6072 C7.5735,10.0802 7.2285,10.5482 6.7525,10.5732 L1.6645,10.0212 C1.2345,9.9242 0.7575,9.5802 0.8815,8.9232 C2.0505,2.7512 7.6235,0.8862 12.6205,0.8862 C15.1745,0.8862 18.5135,1.5672 20.5275,3.5002 C23.0805,5.8862 22.8355,9.0692 22.8355,12.5362 L22.8355,20.7132 C22.8355,23.1742 23.8575,24.2532 24.8165,25.5772 C25.1505,26.0562 25.2275,26.6232 24.7995,26.9732 C23.7275,27.8722 21.8215,29.5272 20.7735,30.4602 L20.7615,30.4482 Z M15.4685,17.6492 C15.4685,19.6952 15.5175,21.3982 14.4865,23.2182 C13.6525,24.6942 12.3255,25.6042 10.8525,25.6042 C8.8395,25.6042 7.6605,24.0692 7.6605,21.7962 C7.6605,17.3252 11.6725,16.5122 15.4685,16.5122 L15.4685,17.6492 Z" id="Fill-11" fill="#000000" mask="url(#mask-2)"></path>
            </g>
            <path d="M105.1736,51.9994 C95.3186,59.2724 81.0306,63.1394 68.7286,63.1394 C51.4856,63.1394 35.9586,56.7664 24.2086,46.1564 C23.2856,45.3234 24.1086,44.1854 25.2176,44.8304 C37.8946,52.2074 53.5716,56.6494 69.7636,56.6494 C80.6866,56.6494 92.6926,54.3834 103.7406,49.6974 C105.4066,48.9904 106.8036,50.7944 105.1736,51.9994" id="Fill-14" fill="#000000"></path>
            <path d="M109.2742,47.3172 C108.0132,45.7042 100.9422,46.5522 97.7652,46.9332 C96.8032,47.0482 96.6532,46.2082 97.5212,45.5992 C103.1632,41.6362 112.4052,42.7802 113.4802,44.1072 C114.5622,45.4452 113.1952,54.7132 107.9092,59.1352 C107.0962,59.8152 106.3222,59.4522 106.6832,58.5542 C107.8732,55.5832 110.5362,48.9322 109.2742,47.3172" id="Fill-16" fill="#000000"></path>
            <path d="M276.4592,37.0448 C275.4952,37.7638 274.0882,38.1218 272.2362,38.1218 C269.5532,38.1218 266.9662,37.7258 264.4722,36.9318 C263.7922,36.7058 263.3192,36.5918 263.0562,36.5918 C262.6022,36.5918 262.3742,36.9318 262.3742,37.6118 L262.3742,39.1988 C262.3742,39.6908 262.4612,40.0498 262.6292,40.2768 C262.8002,40.5018 263.1102,40.7118 263.5652,40.8998 C266.0972,41.9578 268.9492,42.4868 272.1232,42.4868 C275.4462,42.4868 278.1102,41.6918 280.1142,40.1068 C282.1172,38.5188 283.1182,36.3858 283.1182,33.7008 C283.1182,31.8128 282.6272,30.2728 281.6462,29.0838 C280.6612,27.8918 279.0572,26.8628 276.8272,25.9938 L272.4072,24.2928 C270.6302,23.6128 269.4392,22.9898 268.8362,22.4228 C268.2312,21.8558 267.9282,21.0818 267.9282,20.0988 C267.9282,17.6438 269.7422,16.4158 273.3702,16.4158 C275.4462,16.4158 277.4882,16.7178 279.4922,17.3228 C280.0942,17.5118 280.5312,17.6058 280.7952,17.6058 C281.2862,17.6058 281.5302,17.2658 281.5302,16.5858 L281.5302,15.0548 C281.5302,14.5638 281.4382,14.1958 281.2482,13.9498 C281.0602,13.7048 280.7382,13.5048 280.2842,13.3548 C277.9402,12.4858 275.5432,12.0508 273.0862,12.0508 C269.9872,12.0508 267.4852,12.8078 265.5762,14.3168 C263.6682,15.8298 262.7152,17.8138 262.7152,20.2688 C262.7152,24.0088 264.8132,26.6538 269.0072,28.2038 L273.8222,30.0178 C275.3732,30.5848 276.4392,31.1508 277.0252,31.7178 C277.6102,32.2838 277.9042,33.0218 277.9042,33.9278 C277.9042,35.2888 277.4232,36.3278 276.4592,37.0448" id="Fill-18" fill="#000000"></path>
            <path d="M251.3684,14.0345 L251.3684,35.2315 C248.6094,37.0445 245.8714,37.9525 243.1504,37.9525 C241.4124,37.9525 240.1464,37.4715 239.3524,36.5065 C238.5594,35.5435 238.1634,34.0415 238.1634,32.0025 L238.1634,14.0345 C238.1634,13.2795 237.7844,12.9015 237.0284,12.9015 L233.6844,12.9015 C232.9294,12.9015 232.5524,13.2795 232.5524,14.0345 L232.5524,33.8145 C232.5524,36.5735 233.2694,38.7095 234.7054,40.2195 C236.1414,41.7295 238.2014,42.4865 240.8844,42.4865 C244.5864,42.4865 248.1954,41.1825 251.7084,38.5765 L252.1054,40.5595 C252.1804,40.9755 252.3234,41.2595 252.5304,41.4095 C252.7374,41.5605 253.0314,41.6375 253.4104,41.6375 L255.8474,41.6375 C256.6014,41.6375 256.9794,41.2595 256.9794,40.5015 L256.9794,14.0345 C256.9794,13.2795 256.6014,12.9015 255.8474,12.9015 L252.5024,12.9015 C251.7464,12.9015 251.3684,13.2795 251.3684,14.0345" id="Fill-20" fill="#000000"></path>
            <path d="M220.9797,41.6375 L224.3227,41.6375 C225.0777,41.6375 225.4567,41.2595 225.4567,40.5015 L225.4567,20.5525 C225.4567,17.8325 224.7567,15.7355 223.3597,14.2615 C221.9607,12.7885 219.9587,12.0505 217.3517,12.0505 C213.6117,12.0505 209.8697,13.3935 206.1287,16.0755 C204.8817,13.3935 202.5017,12.0505 198.9887,12.0505 C195.5497,12.0505 192.0167,13.2975 188.3887,15.7915 L188.0497,13.9775 C187.9747,13.5625 187.8327,13.2795 187.6247,13.1275 C187.4167,12.9765 187.1237,12.9015 186.7467,12.9015 L184.2527,12.9015 C183.4977,12.9015 183.1197,13.2795 183.1197,14.0345 L183.1197,40.5015 C183.1197,41.2595 183.4977,41.6375 184.2527,41.6375 L187.5967,41.6375 C188.3517,41.6375 188.7297,41.2595 188.7297,40.5015 L188.7297,19.0785 C191.3757,17.4165 194.1317,16.5855 197.0037,16.5855 C198.5537,16.5855 199.6857,17.0385 200.4047,17.9445 C201.1227,18.8525 201.4817,20.2505 201.4817,22.1395 L201.4817,40.5015 C201.4817,41.2595 201.8597,41.6375 202.6157,41.6375 L205.9587,41.6375 C206.7137,41.6375 207.0937,41.2595 207.0937,40.5015 L207.0937,20.8935 L207.0937,19.9865 C207.0937,19.6835 207.0747,19.4015 207.0367,19.1365 C209.8337,17.4355 212.6107,16.5855 215.3677,16.5855 C216.9177,16.5855 218.0497,17.0385 218.7677,17.9445 C219.4857,18.8525 219.8447,20.2505 219.8447,22.1395 L219.8447,40.5015 C219.8447,41.2595 220.2227,41.6375 220.9797,41.6375" id="Fill-22" fill="#000000"></path>
            <g id="Group-26" transform="translate(299.000000, 12.139500)">
                <mask id="mask-4" fill="white">
                    <use xlink:href="#path-3"></use>
                </mask>
                <g id="Clip-25"></g>
                <path d="M8.5393,7.1382 C9.9363,5.5322 12.2233,4.7282 15.3973,4.7282 C16.9833,4.7282 18.5523,4.9552 20.1023,5.4092 C20.5173,5.5232 20.8193,5.5782 21.0083,5.5782 C21.4983,5.5782 21.7443,5.2022 21.7443,4.4462 L21.7443,2.9152 C21.7443,2.3872 21.6603,2.0092 21.4893,1.7832 C21.3193,1.5552 21.0263,1.3662 20.6113,1.2152 C18.6463,0.4982 16.6443,0.1382 14.6033,0.1382 C10.1453,0.1382 6.6983,1.4512 4.2603,4.0772 C1.8233,6.7042 0.6033,10.4162 0.6033,15.2142 C0.6033,20.0512 1.7843,23.7442 4.1463,26.2952 C6.5083,28.8452 9.9183,30.1202 14.3773,30.1202 C16.8323,30.1202 18.9863,29.7232 20.8383,28.9302 C21.2913,28.7422 21.5943,28.5332 21.7443,28.3062 C21.8953,28.0802 21.9713,27.7212 21.9713,27.2292 L21.9713,25.7002 C21.9713,24.9442 21.7263,24.5662 21.2353,24.5662 C21.0833,24.5662 20.8013,24.6232 20.3853,24.7362 C18.5703,25.2662 16.8713,25.5302 15.2833,25.5302 C12.2233,25.5302 9.9833,24.7262 8.5673,23.1192 C7.1493,21.5142 6.4413,18.9932 6.4413,15.5542 L6.4413,14.8182 C6.4413,11.3032 7.1403,8.7442 8.5393,7.1382" id="Fill-24" fill="#000000" mask="url(#mask-4)"></path>
            </g>
            <path d="M292.5432,12.9012 L289.1992,12.9012 C288.4422,12.9012 288.0652,13.2792 288.0652,14.0342 L288.0652,40.5022 C288.0652,41.2592 288.4422,41.6372 289.1992,41.6372 L292.5432,41.6372 C293.2992,41.6372 293.6762,41.2592 293.6762,40.5022 L293.6762,14.0342 C293.6762,13.2792 293.2992,12.9012 292.5432,12.9012" id="Fill-27" fill="#000000"></path>
            <g id="Group-31" transform="translate(287.000000, 0.139500)">
                <mask id="mask-6" fill="white">
                    <use xlink:href="#path-5"></use>
                </mask>
                <g id="Clip-30"></g>
                <path d="M6.4788,1.7944 C5.8538,1.1714 4.9948,0.8604 3.8998,0.8604 C2.8028,0.8604 1.9448,1.1714 1.3208,1.7944 C0.6968,2.4174 0.3848,3.2414 0.3848,4.2614 C0.3848,5.2794 0.6968,6.1034 1.3208,6.7254 C1.9448,7.3494 2.8028,7.6604 3.8998,7.6604 C4.9948,7.6604 5.8538,7.3494 6.4788,6.7254 C7.1008,6.1034 7.4138,5.2794 7.4138,4.2614 C7.4138,3.2414 7.1008,2.4174 6.4788,1.7944" id="Fill-29" fill="#000000" mask="url(#mask-6)"></path>
            </g>
        </g>
    </g>
</svg>